<svg xmlns="http://www.w3.org/2000/svg" width="53" height="45" shape-rendering="geometricPrecision" text-rendering="geometricPrecision" image-rendering="optimizeQuality" fill-rule="evenodd" clip-rule="evenodd"><path fill="#fcfcfd" d="M-.5-.5h14c0 .667-.333 1-1 1-1.406.473-2.073 1.473-2 3a106.248 106.248 0 00-1 20v1c-2 1.333-3.667 3-5 5l-5 4v-34z"/><path fill="#ed597d" d="M13.5-.5h35l2 3a24.939 24.939 0 01-.5 7 95.27 95.27 0 01-8.5 8c.31-3.213-.023-6.213-1-9 .073-1.527-.594-2.527-2-3a36.468 36.468 0 00-5.5-1c-2.008-.193-3.508.473-4.5 2-2.59.92-4.59 2.586-6 5a57.458 57.458 0 00-9 9c-.936 1.474-2.27 2.474-4 3-.293-6.755.04-13.422 1-20 1.406-.473 2.073-1.473 2-3 .667 0 1-.333 1-1z"/><path fill="#f6a7ba" d="M12.5.5c.073 1.527-.594 2.527-2 3-.073-1.527.594-2.527 2-3z"/><path fill="#555db6" d="M38.5 5.5c-.073 1.527.594 2.527 2 3 .977 2.787 1.31 5.787 1 9v1c-2.39 1.39-4.057 3.39-5 6-5.274 3.605-9.94 7.938-14 13-10.08 1.75-14.414-2.583-13-13v-1c1.73-.526 3.064-1.526 4-3 4.028-2.028 7.028-5.028 9-9 2.59-.92 4.59-2.586 6-5 .992-1.527 2.492-2.193 4.5-2 1.878.196 3.712.53 5.5 1z"/><path fill="#9d5999" d="M38.5 5.5c1.406.473 2.073 1.473 2 3-1.406-.473-2.073-1.473-2-3z"/><path fill="#f7bcca" d="M50.5 2.5c1.134 2.466 1.3 5.133.5 8a95.27 95.27 0 01-8.5 8h-1v-1a95.27 95.27 0 008.5-8c.497-2.31.663-4.643.5-7z"/><path fill="#fcfcfe" d="M48.5-.5h4v45h-16c1-1.667 2.333-3 4-4 1.963-6.924 2.63-14.257 2-22a95.27 95.27 0 008.5-8c.8-2.867.634-5.534-.5-8l-2-3z"/><path fill="#93599e" d="M28.5 6.5c-1.41 2.414-3.41 4.08-6 5 1.41-2.414 3.41-4.08 6-5z"/><path fill="#8d5aa0" d="M22.5 11.5c-1.972 3.972-4.972 6.972-9 9a57.458 57.458 0 019-9z"/><path fill="#60bdfd" d="M41.5 18.5c.264 7.39-.07 14.723-1 22-1.667 1-3 2.333-4 4h-33c-2.039-1.411-3.039-3.411-3-6a8.435 8.435 0 01.5-4c1.802-1.29 2.969-2.956 3.5-5 1.333-2 3-3.667 5-5-1.414 10.417 2.92 14.75 13 13 5.274-3.605 9.94-7.938 14-13 .943-2.61 2.61-4.61 5-6z"/><path fill="#d7eefe" d="M41.5 18.5h1c.63 7.743-.037 15.076-2 22 .93-7.277 1.264-14.61 1-22z"/><path fill="#599be4" d="M36.5 24.5c-4.06 5.062-8.726 9.395-14 13 4.06-5.062 8.726-9.395 14-13z"/><path fill="#a8dbfe" d="M4.5 29.5c-.531 2.044-1.698 3.71-3.5 5a8.435 8.435 0 00-.5 4h-1v-5l5-4z"/><path fill="#f4fafe" d="M-.5 38.5h1c-.039 2.589.961 4.589 3 6h-4v-6z"/></svg>