<svg viewBox="0 0 238 69" xmlns="http://www.w3.org/2000/svg" xmlns:xlink="http://www.w3.org/1999/xlink"><style>:root&gt;svg{display:none}:root&gt;svg:target{display:block}</style><svg fill="none" viewBox="0 0 66 66" id="chat-bubble" xmlns="http://www.w3.org/2000/svg"><path d="M9.175 14.537a2.929 2.929 0 00-2.926 2.926 2.929 2.929 0 002.926 2.926 2.93 2.93 0 002.926-2.926 2.929 2.929 0 00-2.926-2.926zm0 3.918a.993.993 0 010-1.984.993.993 0 010 1.984zm8.085-3.918a2.929 2.929 0 00-2.926 2.926 2.93 2.93 0 002.925 2.926 2.929 2.929 0 002.926-2.926 2.929 2.929 0 00-2.925-2.926zm0 3.918a.993.993 0 010-1.984.993.993 0 010 1.984zm8.084-3.918a2.929 2.929 0 00-2.926 2.926 2.929 2.929 0 002.926 2.926 2.929 2.929 0 002.926-2.926 2.929 2.929 0 00-2.926-2.926zm0 3.918a.993.993 0 010-1.984.993.993 0 010 1.984zM58.571 42.95H23.385a.967.967 0 100 1.933H58.57a.967.967 0 100-1.934z" fill="#F8BE4D"/><path d="M65.033 31.926A.967.967 0 0066 30.96V17.191a3.582 3.582 0 00-3.578-3.578H34.99V6.52a2.782 2.782 0 00-2.78-2.779H19.516a.967.967 0 100 1.934h12.696c.466 0 .845.379.845.845v21.62c0 .467-.38.846-.845.846h-2.537c-.834 0-1.512.678-1.512 1.511v4.875l-4.894-5.64a2.162 2.162 0 00-1.634-.746H2.78a.846.846 0 01-.845-.846V6.52c0-.466.379-.845.845-.845h12.224a.967.967 0 000-1.934H2.78A2.782 2.782 0 000 6.521v21.62a2.782 2.782 0 002.78 2.779h13.665v17.417a3.582 3.582 0 003.578 3.578h3.472v8.662c0 1.554 1.931 2.272 2.948 1.1l8.244-9.5a.757.757 0 01.572-.262h27.163A3.582 3.582 0 0066 48.337V35.471a.967.967 0 00-1.934 0v12.867c0 .906-.737 1.644-1.644 1.644H35.26a2.69 2.69 0 00-2.032.927l-7.799 8.988v-8.164c0-.966-.785-1.751-1.75-1.751h-3.655a1.646 1.646 0 01-1.645-1.645V30.92h3.256a.23.23 0 01.174.08l1.133 1.306a.966.966 0 00.444 1.825h1.14l2.987 3.442h-4.127a.967.967 0 100 1.934H58.57a.967.967 0 100-1.934H29.76c.224-.268.337-.6.337-.936V34.13h28.475a.967.967 0 100-1.934H30.096V30.92h2.114a2.78 2.78 0 002.709-2.165H58.57a.967.967 0 100-1.933H34.99v-3.443h23.58a.967.967 0 100-1.933H34.99v-5.9h27.432c.907 0 1.644.738 1.644 1.645v13.768c0 .534.433.967.967.967z" fill="#F8BE4D"/></svg><svg fill="none" viewBox="0 0 66 66" id="clock" xmlns="http://www.w3.org/2000/svg"><g clip-path="url(#bclip0_8_98)" fill="#F8BE4D"><path d="M33.04 5.481c-20.957 0-34.523 22.748-23.629 41.49 10.643 17.88 36.56 17.974 47.258 0 2.672-4.597 3.876-9.396 3.876-13.986 0-15.032-12.242-27.504-27.505-27.504zm22.574 39.42l-2.32-1.34a.968.968 0 10-.967 1.677l2.315 1.337a25.739 25.739 0 01-8.016 8.005l-1.333-2.308a.968.968 0 00-1.677.967l1.334 2.31a25.365 25.365 0 01-10.942 2.933v-2.668a.968.968 0 10-1.936 0v2.668A25.365 25.365 0 0121.13 55.55l1.334-2.31a.968.968 0 00-1.677-.968l-1.332 2.308a25.745 25.745 0 01-8.017-8.005l2.316-1.337a.968.968 0 00-.968-1.676l-2.32 1.339a25.363 25.363 0 01-2.948-10.947h2.693a.968.968 0 100-1.937H7.517a25.365 25.365 0 012.929-10.959l2.34 1.351a.968.968 0 10.968-1.677l-2.34-1.35a25.743 25.743 0 018.019-8.03l1.355 2.347a.967.967 0 101.676-.968l-1.356-2.35a25.365 25.365 0 0110.964-2.944v2.72a.968.968 0 001.936 0v-2.72a25.363 25.363 0 0110.965 2.945l-1.357 2.35a.968.968 0 001.677.967l1.354-2.346a25.744 25.744 0 018.019 8.03l-2.34 1.35a.968.968 0 00.968 1.676l2.34-1.35a25.368 25.368 0 012.93 10.958h-2.695a.968.968 0 100 1.937h2.693A25.364 25.364 0 0155.614 44.9z"/><path d="M47.457 32.3l-3.022-3.02a.968.968 0 00-1.369 1.368l1.383 1.383h-6.795v-1.168a2.52 2.52 0 00-2.517-2.517h-1.129V16.713l1.383 1.383a.965.965 0 001.369 0 .968.968 0 000-1.37l-3.022-3.021a.968.968 0 00-1.369 0l-3.021 3.022a.968.968 0 101.369 1.369l1.355-1.356v11.606h-1.129a2.52 2.52 0 00-2.517 2.517v4.194a2.52 2.52 0 002.517 2.517h4.194a2.52 2.52 0 002.517-2.517v-1.09h6.768l-1.356 1.355a.968.968 0 101.37 1.37l3.021-3.022a.968.968 0 000-1.37zm-11.739 2.757c0 .314-.266.58-.58.58h-4.195a.589.589 0 01-.58-.58v-4.195c0-.314.265-.58.58-.58h4.194c.315 0 .581.266.581.58v4.195zm30.28-4.424C64.852 14.252 51.716 1.145 35.365.003a.968.968 0 00-.135 1.931c15.365 1.074 27.761 13.47 28.835 28.834a.968.968 0 001.931-.135z"/><path d="M65.1 34.253a.968.968 0 00-1.034.898C62.932 51.364 49.304 64.064 33.04 64.064c-17.15 0-31.104-13.953-31.104-31.104 0-16.264 12.7-29.893 28.913-31.026a.968.968 0 00-.135-1.932C13.516 1.205 0 15.572 0 32.96 0 51.178 14.822 66 33.04 66c17.383 0 31.755-13.511 32.958-30.714a.968.968 0 00-.899-1.033z"/></g><defs><clipPath id="bclip0_8_98"><path fill="#fff" d="M0 0h66v66H0z"/></clipPath></defs></svg><svg fill="none" viewBox="0 0 20 20" id="input-person" xmlns="http://www.w3.org/2000/svg"><g clip-path="url(#cclip0_34_8)" fill="#F8BE4D"><path d="M9.967 11.166a5.354 5.354 0 005.353-5.353A5.34 5.34 0 009.967.476c-2.955 0-5.353 2.398-5.353 5.337 0 2.94 2.397 5.353 5.353 5.353zM.706 19.524h18.588a.7.7 0 00.706-.706c0-3.695-3.005-6.716-6.716-6.716H6.716C3.02 12.102 0 15.107 0 18.818a.7.7 0 00.706.706z"/></g><defs><clipPath id="cclip0_34_8"><path fill="#fff" d="M0 0h20v20H0z"/></clipPath></defs></svg><svg fill="none" viewBox="0 0 20 20" id="input-phone" xmlns="http://www.w3.org/2000/svg"><g clip-path="url(#dclip0_34_11)"><path d="M19.957 15.496c-.057-.17-.417-.421-1.08-.752-.18-.105-.435-.247-.766-.426-.332-.18-.633-.346-.902-.498a27.78 27.78 0 01-.76-.44 18.301 18.301 0 00-.355-.249 4.005 4.005 0 00-.505-.305.93.93 0 00-.405-.1c-.19 0-.426.136-.71.405-.284.27-.544.564-.78.881-.237.318-.488.61-.753.88-.266.27-.484.406-.654.406a.964.964 0 01-.32-.071 3.304 3.304 0 01-.29-.12 5.33 5.33 0 01-.341-.2 8.664 8.664 0 00-.27-.163c-1.298-.72-2.41-1.544-3.339-2.472-.927-.928-1.751-2.04-2.471-3.338a8.25 8.25 0 00-.163-.27 5.121 5.121 0 01-.2-.34 3.076 3.076 0 01-.12-.292.961.961 0 01-.07-.32c-.001-.17.134-.388.404-.653s.563-.516.88-.753a6.9 6.9 0 00.881-.78c.27-.285.405-.521.405-.71a.927.927 0 00-.1-.406 3.95 3.95 0 00-.305-.504c-.137-.199-.22-.317-.249-.355-.141-.237-.288-.49-.44-.76a71.55 71.55 0 01-.497-.902c-.18-.331-.322-.587-.426-.767C4.925.46 4.674.1 4.503.042A.795.795 0 004.205 0c-.256 0-.59.047-1.001.142A5.625 5.625 0 002.23.44c-.474.2-.976.777-1.506 1.733C.242 3.063 0 3.943 0 4.815c0 .255.017.504.05.746.033.241.093.513.178.816.085.303.154.529.206.675.052.147.149.41.29.788.143.38.228.611.256.696a12.87 12.87 0 001.18 2.486c.747 1.212 1.768 2.465 3.06 3.757 1.293 1.293 2.545 2.313 3.757 3.061.73.455 1.558.848 2.486 1.18.085.028.317.113.696.255.379.142.641.24.788.291.147.053.372.121.675.207.303.085.575.144.817.178.241.032.49.049.745.049.871 0 1.752-.241 2.642-.724.956-.53 1.534-1.032 1.733-1.506.104-.237.203-.561.298-.973.095-.412.142-.746.142-1.002a.794.794 0 00-.042-.299z" fill="#F8BE4D"/></g><defs><clipPath id="dclip0_34_11"><path fill="#fff" d="M0 0h20v20H0z"/></clipPath></defs></svg><svg fill="none" viewBox="0 0 238 69" id="logo" xmlns="http://www.w3.org/2000/svg"><g clip-path="url(#eclip0_6_3)" fill="#fff"><path d="M92.195 20.997c1.297.375 2.362.827 3.195 1.363.833.535 1.571 1.07 2.214 1.6.642.535 1.106.987 1.38 1.35l.44.571-3.718 3.718c-.078-.102-.179-.244-.316-.429-.13-.184-.434-.5-.898-.945a9.095 9.095 0 00-1.517-1.178c-.548-.333-1.268-.649-2.154-.934a8.883 8.883 0 00-2.731-.428c-2.559 0-4.695.856-6.408 2.575-1.714 1.72-2.577 3.855-2.577 6.407 0 2.557.863 4.693 2.577 6.406 1.72 1.719 3.855 2.575 6.408 2.575a9.9 9.9 0 002.856-.41c.91-.274 1.66-.595 2.26-.97a14.952 14.952 0 001.584-1.136c.458-.38.79-.713.993-.993l.304-.399 3.528 3.718a7.39 7.39 0 01-.47.6c-.214.25-.672.685-1.392 1.316a14.63 14.63 0 01-2.309 1.659c-.821.476-1.892.916-3.225 1.309a14.501 14.501 0 01-4.13.595c-4.17 0-7.687-1.398-10.555-4.188-2.867-2.79-4.301-6.15-4.301-10.077 0-3.925 1.434-7.286 4.301-10.07 2.868-2.784 6.385-4.182 10.556-4.182 1.44.018 2.808.203 4.105.577zm34.016.013v5.281h-7.8v22.062h-5.861V26.291h-7.818V21.01h21.479zm10.585 20.901l-2.35 6.448h-6.259l10.757-27.35h6.236l10.77 27.35h-6.26l-2.344-6.448h-10.55zm5.284-14.055l-3.338 8.982h6.658l-3.32-8.982zm36.955-6.846v5.281h-7.8v22.062h-5.861V26.291h-7.818V21.01h21.479zm15.286 18.677l-9.615-18.678h6.235l6.45 12.89 5.474-12.89h6.623l-12.864 27.35h-6.462l4.159-8.672zm36.259-18.69c1.297.375 2.363.827 3.196 1.363a23.15 23.15 0 012.213 1.6c.643.535 1.101.987 1.38 1.35l.441.571-3.719 3.718c-.077-.102-.179-.244-.315-.429-.131-.184-.429-.5-.899-.945a9.105 9.105 0 00-1.517-1.178c-.548-.333-1.268-.649-2.154-.934a8.915 8.915 0 00-2.731-.428c-2.553 0-4.695.856-6.408 2.575-1.72 1.72-2.577 3.855-2.577 6.407 0 2.557.857 4.693 2.577 6.406 1.719 1.719 3.855 2.575 6.408 2.575.994 0 1.946-.136 2.856-.41.91-.274 1.666-.595 2.261-.97a15.04 15.04 0 001.583-1.136c.458-.38.791-.713.993-.993l.304-.399L238 43.458a7.413 7.413 0 01-.47.6c-.214.25-.678.685-1.392 1.316-.72.63-1.488 1.183-2.309 1.659-.815.476-1.892.916-3.225 1.309a14.53 14.53 0 01-4.129.595c-4.171 0-7.693-1.398-10.561-4.188-2.868-2.79-4.302-6.15-4.302-10.077 0-3.925 1.434-7.286 4.302-10.07 2.868-2.784 6.39-4.182 10.561-4.182 1.44.018 2.808.203 4.105.577zM75.434 62.076c.488 0 .898.16 1.232.482.327.321.494.714.494 1.172 0 .458-.167.85-.494 1.172a1.706 1.706 0 01-1.232.481h-1.243v1.833h-.81v-5.14h2.053zm-1.243.732v1.838h1.243a.88.88 0 00.649-.268.874.874 0 00.267-.654.893.893 0 00-.267-.654.88.88 0 00-.649-.268h-1.243v.006zm8.579 3.67v.738h-3.706v-5.14h3.635v.732h-2.826v1.362h2.237v.732h-2.237v1.576h2.897zm1.827-4.402H87.9v.732h-2.493v4.408h-.809v-5.14zm8.402 5.14V63.51l-2.862 3.706h-.697v-5.14h.804v3.706l2.868-3.706h.696v5.14h-.81zm6.176-5.11c.238.065.434.149.595.25.16.1.291.196.41.291.119.095.202.179.262.244l.077.101-.511.518c-.012-.018-.036-.048-.06-.084a1.967 1.967 0 00-.19-.184 1.753 1.753 0 00-.316-.238 2.268 2.268 0 00-.44-.184 2.007 2.007 0 00-.571-.084c-.536 0-.982.185-1.357.554a1.84 1.84 0 00-.553 1.35c0 .535.184.981.553 1.356.37.369.821.553 1.357.553.202 0 .392-.03.577-.083.184-.053.333-.125.458-.202.12-.078.226-.16.322-.232.089-.078.16-.143.208-.202l.059-.09.518.518a.966.966 0 01-.089.113c-.042.047-.131.125-.262.25a4.38 4.38 0 01-.429.309c-.154.09-.35.172-.595.244a2.667 2.667 0 01-.755.107c-.768 0-1.41-.256-1.934-.767a2.52 2.52 0 01-.785-1.874c0-.738.261-1.362.785-1.874.524-.511 1.166-.767 1.934-.767.244.006.494.036.732.107zm6.437-.03v.732h-1.547v4.408h-.803v-4.408h-1.541v-.732h3.891zm3.666 0c.488 0 .898.16 1.231.482.334.321.494.714.494 1.172 0 .458-.166.85-.494 1.172-.327.32-.743.481-1.231.481h-1.25v1.833h-.809v-5.14h2.059zm-1.25.732v1.838h1.25a.88.88 0 00.648-.268.873.873 0 00.268-.654.891.891 0 00-.268-.654.878.878 0 00-.648-.268h-1.25v.006zm5.98-.732h.803l2.13 5.14h-.845l-.553-1.357h-2.273l-.553 1.357h-.845l2.136-5.14zm-.446 3.046h1.689l-.844-2.13-.845 2.13zm7.848-3.046v.732h-1.541v4.408h-.81v-4.408h-1.541v-.732h3.892zm1.809.696c.523-.511 1.166-.767 1.933-.767.768 0 1.41.256 1.934.767.524.512.785 1.136.785 1.874a2.52 2.52 0 01-.785 1.874c-.524.511-1.166.767-1.934.767-.767 0-1.416-.256-1.933-.767-.524-.512-.78-1.136-.78-1.874a2.491 2.491 0 01.78-1.874zm.577 3.224c.369.369.821.553 1.356.553.536 0 .982-.184 1.357-.553.369-.369.553-.82.553-1.356a1.83 1.83 0 00-.553-1.35 1.845 1.845 0 00-1.357-.553c-.535 0-.987.184-1.356.553a1.84 1.84 0 00-.554 1.35c0 .535.185.987.554 1.356zm8.026-3.92c.488 0 .899.16 1.232.482.327.321.494.714.494 1.172 0 .458-.167.85-.494 1.172a1.707 1.707 0 01-1.232.481h-1.243v1.833h-.809v-5.14h2.052zm-1.243.732v1.838h1.243c.256 0 .47-.09.649-.268a.876.876 0 00.268-.654.895.895 0 00-.268-.654.882.882 0 00-.649-.268h-1.243v.006zm8.044-.702c.238.065.434.149.595.25.161.1.292.196.411.291.119.095.202.179.256.244l.077.101-.512.518c-.012-.018-.036-.048-.059-.084a2.038 2.038 0 00-.191-.184 1.746 1.746 0 00-.315-.238 2.453 2.453 0 00-.44-.184 1.981 1.981 0 00-.572-.084c-.535 0-.981.185-1.356.554a1.84 1.84 0 00-.554 1.35c0 .535.185.981.554 1.356.369.369.821.553 1.356.553.203 0 .393-.03.578-.083.184-.053.333-.125.458-.202.119-.078.226-.16.321-.232.089-.078.161-.143.208-.202l.06-.09.517.518a.788.788 0 01-.089.113 3.969 3.969 0 01-.262.25 4.221 4.221 0 01-.428.309c-.155.09-.351.172-.595.244a2.668 2.668 0 01-.756.107c-.767 0-1.416-.256-1.933-.767-.524-.512-.78-1.136-.78-1.874 0-.738.262-1.362.78-1.874.523-.511 1.166-.767 1.933-.767.25.006.5.036.738.107zm3.939 2.469l2.315-2.499h1.029l-1.981 2.13 2.13 3.01h-.994l-1.69-2.427-.809.88v1.547h-.803v-5.14h.803v2.498zm5.218-1.803c.524-.511 1.166-.767 1.934-.767.767 0 1.41.256 1.934.767.523.512.785 1.136.785 1.874 0 .737-.262 1.362-.785 1.874-.524.511-1.167.767-1.934.767-.768 0-1.41-.256-1.934-.767-.523-.512-.779-1.136-.779-1.874 0-.738.256-1.362.779-1.874zm.577 3.224c.369.369.821.553 1.357.553.535 0 .988-.184 1.357-.553.368-.369.553-.82.553-1.356 0-.535-.185-.982-.553-1.35a1.847 1.847 0 00-1.357-.553c-.536 0-.988.184-1.357.553a1.84 1.84 0 00-.553 1.35c0 .535.184.987.553 1.356zm9.681.482v.738h-3.707v-5.14h3.642v.732h-2.833v1.362h2.243v.732h-2.243v1.576h2.898zm4.516-3.706c.524-.511 1.166-.767 1.934-.767.767 0 1.41.256 1.934.767.523.512.785 1.136.785 1.874 0 .737-.262 1.362-.785 1.874-.518.511-1.167.767-1.934.767-.768 0-1.416-.256-1.934-.767-.524-.512-.779-1.136-.779-1.874 0-.738.255-1.362.779-1.874zm.583 3.224c.369.369.821.553 1.357.553.535 0 .981-.184 1.356-.553.369-.369.554-.82.554-1.356a1.83 1.83 0 00-.554-1.35 1.845 1.845 0 00-1.356-.553c-.536 0-.988.184-1.357.553a1.84 1.84 0 00-.553 1.35c-.006.535.178.987.553 1.356zm5.968 1.22v-5.14h3.38v.732h-2.571v1.249h1.321c.476 0 .869.155 1.184.458.315.303.47.678.47 1.124 0 .446-.155.821-.47 1.124-.315.304-.708.453-1.184.453h-2.13zm2.13-.738a.8.8 0 00.601-.244.82.82 0 00.244-.6.82.82 0 00-.244-.602.822.822 0 00-.601-.243h-1.321v1.689h1.321zm9.722 0h.625v1.838h-.809v-1.1h-5.986v-5.14h.809v4.402h1.875v-4.402h.809v4.402h1.868v-4.402h.809v4.402zm6.01 0v.738h-3.707v-5.14h3.635v.732h-2.826v1.362h2.237v.732h-2.237v1.576h2.898zm4.855-4.372c.238.065.434.149.595.25.155.1.292.196.411.291.119.095.202.179.255.244l.078.101-.512.518c-.012-.018-.036-.048-.059-.084a2.038 2.038 0 00-.191-.184 1.746 1.746 0 00-.315-.238 2.453 2.453 0 00-.44-.184 1.981 1.981 0 00-.572-.084c-.535 0-.981.185-1.356.554a1.84 1.84 0 00-.554 1.35c0 .535.185.981.554 1.356.369.369.821.553 1.356.553.203 0 .393-.03.577-.083.185-.053.334-.125.459-.202.119-.078.226-.16.321-.232.089-.078.161-.143.208-.202l.06-.09.517.518c-.018.03-.053.065-.089.113a4.257 4.257 0 01-.262.25 4.336 4.336 0 01-.428.309c-.155.09-.351.172-.595.244a2.668 2.668 0 01-.756.107c-.767 0-1.416-.256-1.934-.767-.523-.512-.779-1.136-.779-1.874 0-.738.262-1.362.779-1.874.524-.511 1.167-.767 1.934-.767.25.006.494.036.738.107zm6.432-.03v.732h-1.541v4.408h-.803v-4.408h-1.541v-.732h3.885zm1.612 5.14v-5.14h2.089c.416 0 .773.137 1.065.41.297.274.44.59.44.946 0 .209-.041.393-.125.566-.083.172-.166.291-.25.356l-.13.108a.484.484 0 01.083.047c.035.024.095.072.19.149.089.077.167.16.232.25.066.089.125.208.185.35.059.143.083.298.083.453a1.4 1.4 0 01-.476 1.058c-.315.298-.708.447-1.178.447h-2.208zm.81-4.444v1.392h1.285a.678.678 0 00.702-.696.678.678 0 00-.702-.696h-1.285zm1.392 3.742c.238 0 .44-.084.601-.244a.82.82 0 00.244-.601.82.82 0 00-.244-.6.822.822 0 00-.601-.245h-1.392v1.69h1.392zm4.04-3.742c.524-.511 1.166-.767 1.934-.767.767 0 1.416.256 1.934.767.523.512.785 1.136.785 1.874 0 .737-.262 1.362-.785 1.874-.518.511-1.167.767-1.934.767-.768 0-1.41-.256-1.934-.767-.524-.512-.779-1.136-.779-1.874 0-.738.255-1.362.779-1.874zm.577 3.224c.369.369.821.553 1.357.553.535 0 .987-.184 1.356-.553.369-.369.554-.82.554-1.356a1.83 1.83 0 00-.554-1.35 1.845 1.845 0 00-1.356-.553c-.536 0-.988.184-1.357.553a1.84 1.84 0 00-.553 1.35c0 .535.184.987.553 1.356zM238 54.57H73.28v1.284H238V54.57zM29.78.167L.03 17.315 0 51.65l29.732 17.184 29.75-17.148.024-34.334L29.78.167zM10.906 24.804L27.68 34.5l-16.785 9.672.012-19.368zm18.79 31.407l-17.79-10.278 17.796-10.261 17.79 10.284-17.796 10.255zm.006-22.883L11.924 23.05 29.72 12.789l17.785 10.284-17.803 10.255z"/></g><defs><clipPath id="eclip0_6_3"><path fill="#fff" d="M0 0h238v69H0z"/></clipPath></defs></svg><svg fill="none" viewBox="0 0 45 66" id="person" xmlns="http://www.w3.org/2000/svg"><path d="M43.52 53.476a.967.967 0 00-.967.967v9.09c0 .294-.24.533-.534.533h-5.197V45.027a.967.967 0 10-1.934 0v19.04H24.423l3.035-3.34a1.733 1.733 0 00.414-1.42l-2.89-17.075.778-1.172c.43.305.762.6 1.384.6.633 0 1.224-.354 1.515-.937l3.049-6.11 6.945 2.69c.251.107 3.9 1.75 3.9 6.088v6.54a.967.967 0 101.933 0v-6.54c0-5.716-4.894-7.794-5.103-7.88a.37.37 0 00-.018-.007l-11.559-4.476v-2.711a9.059 9.059 0 003.429-5.959 4.185 4.185 0 002.458-1.003 4.098 4.098 0 001.426-3.11c0-.993-.359-1.942-.998-2.681v-3.582C34.121 5.375 28.746 0 22.14 0c-6.607 0-11.982 5.375-11.982 11.982v3.676a3.882 3.882 0 00-.997 2.587c0 1.198.52 2.331 1.426 3.11a4.182 4.182 0 002.457 1.003 8.963 8.963 0 003.624 6.102v2.568L5.121 35.504l-.018.007C4.894 35.597 0 37.675 0 43.391v20.141A2.47 2.47 0 002.468 66h9.21a.967.967 0 000-1.934h-2.08V45.027a.967.967 0 00-1.933 0v19.04H2.468a.534.534 0 01-.534-.534V43.39c0-4.353 3.673-5.992 3.898-6.088l6.94-2.69 3.049 6.11c.292.584.884.937 1.515.937.62 0 .948-.29 1.384-.6l.78 1.172-2.891 17.076-.005.029a1.73 1.73 0 00.419 1.39l3.034 3.34h-3.866a.967.967 0 000 1.933h25.828a2.47 2.47 0 002.468-2.468v-9.09a.967.967 0 00-.967-.966zM29.897 33.91l-2.842 5.697-3.418-2.428 3.51-4.334 2.75 1.065zm-5.715 6.028l-.737 1.11h-2.41l-.738-1.11 1.943-1.38 1.942 1.38zm-5.581-8.6V29.53a9.808 9.808 0 003.655.693c1.268 0 2.511-.27 3.616-.754v1.878l-3.632 4.484-3.64-4.492zm14.584-13.094c0 .634-.275 1.233-.753 1.644a2.252 2.252 0 01-1.116.514v-4.315c1.11.18 1.869 1.102 1.869 2.157zm-20.222 2.158c-1.124-.182-1.87-1.111-1.87-2.158 0-1.033.857-1.875 1.87-2.109v4.267zm.052-6.237a4.863 4.863 0 00-.924.208v-2.392c0-5.54 4.507-10.048 10.048-10.048 5.54 0 10.049 4.507 10.049 10.048v2.326a4.299 4.299 0 00-.872-.168c0-.933.008-.753-3.044-4.034a1.72 1.72 0 00-2.196-.268c-3.368 2.2-7.477 3.306-11.268 3.033a1.719 1.719 0 00-1.793 1.295zm1.881 6.998v-6.348c4.174.244 8.55-.996 12.084-3.26 1.4 1.504 2.158 2.292 2.402 2.592v7.017c0 3.925-3.2 7.126-7.125 7.126-4.408 0-7.36-3.42-7.36-7.126zm2.529 18.444l-2.842-5.697 2.745-1.063 3.511 4.335-3.414 2.425zm1.11 19.908l2.798-16.534h1.814l2.798 16.534-3.705 4.077-3.706-4.077z" fill="#F8BE4D"/></svg><svg fill="none" viewBox="0 0 15 25" id="phone" xmlns="http://www.w3.org/2000/svg"><path class="gcolor--grey" d="M13.256 0H1.744C.785 0 0 .76 0 1.689V23.31C0 24.24.785 25 1.744 25h11.512c.959 0 1.744-.759 1.744-1.689V1.69C15 .759 14.215 0 13.256 0zM5.659 1.217H9.34c.117 0 .211.092.211.205a.208.208 0 01-.21.204H5.658a.208.208 0 01-.211-.204c0-.113.094-.205.21-.205zM7.5 24.156a.858.858 0 01-.872-.845c0-.467.39-.845.872-.845s.872.378.872.845c0 .467-.39.845-.872.845zm6.286-2.281H1.214V2.678h12.572v19.197z" fill="#F8BE4D"/></svg><svg fill="none" viewBox="0 0 15 25" id="phone-footer" xmlns="http://www.w3.org/2000/svg"><path class="hcolor--grey" d="M13.256 0H1.744C.785 0 0 .76 0 1.689V23.31C0 24.24.785 25 1.744 25h11.512c.959 0 1.744-.759 1.744-1.689V1.69C15 .759 14.215 0 13.256 0zM5.659 1.217H9.34c.117 0 .211.092.211.205a.208.208 0 01-.21.204H5.658a.208.208 0 01-.211-.204c0-.113.094-.205.21-.205zM7.5 24.156a.858.858 0 01-.872-.845c0-.467.39-.845.872-.845s.872.378.872.845c0 .467-.39.845-.872.845zm6.286-2.281H1.214V2.678h12.572v19.197z" fill="#61666B"/></svg><svg fill="none" viewBox="0 0 66 66" id="team" xmlns="http://www.w3.org/2000/svg"><g clip-path="url(#iclip0_8_0)"><path d="M63.07 37.852c-1.332-1.257-2.682-1.786-2.944-1.881l-4.45-1.854-3.115-2.056v-1.046a8.495 8.495 0 004.452-6.167 4.004 4.004 0 003.47-3.962c0-1.04-.4-1.987-1.052-2.7v-3.833c0-6.168-5.018-11.186-11.186-11.186H47.4c-5.078 0-9.508 3.41-10.81 8.304a11.705 11.705 0 00-3.061-.408h-.89a11.7 11.7 0 00-3.217.452A11.177 11.177 0 0018.6 3.167h-.845c-6.168 0-11.186 5.018-11.186 11.186v3.834a3.983 3.983 0 00-1.051 2.699 4.004 4.004 0 003.469 3.962 8.495 8.495 0 004.452 6.167v1.046l-3.116 2.056-4.449 1.854c-.262.095-1.612.624-2.944 1.881C1.594 39.115 0 41.385 0 45.03v6.333c0 .576.467 1.044 1.042 1.044h13.086c-.194.81-.31 1.71-.31 2.71v6.673c0 .576.467 1.044 1.043 1.044h24.484a1.042 1.042 0 100-2.084h-2.231l-1.259-7.8.492-1.31.744.547a1.041 1.041 0 001.554-.384l2.83-5.817 3.777 1.574a.701.701 0 00.069.025c.047.016 4.776 1.673 4.776 7.531v5.634h-4.323v-5.937a1.042 1.042 0 10-2.084 0v5.937h-1.102a1.042 1.042 0 100 2.084h8.551c.576 0 1.042-.48 1.042-1.055v-6.663c0-1-.115-1.9-.309-2.71h13.086c.576 0 1.042-.479 1.042-1.054v-6.323c0-3.643-1.594-5.913-2.93-7.175zm-8.033-14.35a6.397 6.397 0 01-6.39 6.39h-1.612c-.225 0-.45-.014-.672-.037.002-.06.004-.119.004-.179 0-1.088-.42-2.08-1.107-2.821v-4.062c0-1.854-.434-3.608-1.204-5.168 2.286-.553 4.967-1.61 7.042-3.64.645 1.376 1.848 3.167 3.939 3.96v5.557zm-4.56 8.273v2.13l-2.678 2.78-2.594-2.527.002-.034v-1.57c.199-.208.377-.436.53-.68a8.67 8.67 0 001.298.102h1.613c.628 0 1.24-.07 1.828-.2zm-6.194-2.098c0 .525-.199 1.004-.522 1.37a1.047 1.047 0 00-.471.396c-.145.089-.3.162-.464.213v-3.96a2.077 2.077 0 011.457 1.98zm14.115-8.791c0 .832-.534 1.54-1.277 1.803v-3.607a1.916 1.916 0 011.277 1.804zm-19.815-8.804a9.095 9.095 0 018.817-6.83h.845c5.019 0 9.102 4.082 9.102 9.101v2.629a3.941 3.941 0 00-.255-.049 1.041 1.041 0 00-.782-.776c-2.917-.663-3.814-4.386-3.823-4.421a1.042 1.042 0 00-1.86-.38c-1.954 2.7-5.212 3.88-7.725 4.393a11.807 11.807 0 00-4.355-3.556.846.846 0 00.036-.111zm-5.944 1.065h.89c5.319 0 9.646 4.327 9.646 9.646v2.84a4.165 4.165 0 00-.37-.07l-.008-.04a.997.997 0 00-.014-.053c-.005-.017-.01-.034-.017-.05l-.016-.044a.858.858 0 00-.023-.052l-.019-.039a.975.975 0 00-.027-.049l-.023-.038-.03-.043-.03-.04a1.074 1.074 0 00-.067-.076l-.032-.03-.042-.039-.033-.026a.894.894 0 00-.047-.035c-.012-.009-.025-.016-.037-.024l-.047-.029c-.015-.009-.03-.016-.046-.024l-.044-.02a1.009 1.009 0 00-.057-.023l-.037-.014a1.08 1.08 0 00-.068-.019l-.026-.007c-3.109-.708-4.061-4.664-4.07-4.701a1.042 1.042 0 00-1.86-.38c-3.622 5.006-11.536 5.055-11.656 5.055h-.005c-.036 0-.071.002-.106.005l-.025.004a1.077 1.077 0 00-.079.012l-.028.007a1.107 1.107 0 00-.071.018l-.037.014c-.02.007-.04.013-.059.021l-.045.022-.046.022c-.015.008-.03.018-.044.027l-.041.025-.043.032-.037.028c-.014.01-.026.023-.039.034l-.035.033-.034.037-.034.037-.03.039-.03.04-.025.042-.027.044-.021.044-.023.047-.017.047c-.006.016-.013.032-.018.049l-.013.048c-.004.017-.01.034-.013.051l-.002.01c-.139.02-.276.047-.41.08v-2.849c0-5.319 4.328-9.646 9.646-9.646zm.421 33.256l-2.792-2.719.003-.058V41.08a8.861 8.861 0 001.983.227h1.7a8.87 8.87 0 001.925-.213c.02 0 .038-.002.057-.003v2.327l-2.876 2.985zm1.543 3.952l-.542 1.444h-1.942l-.613-1.463 1.536-1.13 1.56 1.149zm-15.545-8.527h-1.77l-.488-1.3 1.418-1.042 1.392 1.025-.552 1.317zm.138 4.14a9.966 9.966 0 00-2.307 1.627l-.036.034.6-3.717h1.411l.332 2.057zm-.995-9.283l-2.678-2.78v-2.13c.59.13 1.201.201 1.83.201h1.612c.5 0 .998-.044 1.488-.13.102.167.216.326.34.477v1.801l.002.034-2.594 2.527zm4.362-1.34a1.04 1.04 0 00.306-.87l.916.603c.099.318.218.628.35.93l-1.879 3.862-2.47-1.818 2.777-2.706zm-.639-5.668c0-.93.614-1.717 1.458-1.98v3.96a2.077 2.077 0 01-1.458-1.98zm-.587 12.104l.692.51a1.041 1.041 0 001.554-.384l1.851-3.805a8.929 8.929 0 002.753 2.213V41.4l-3.34 2.204a1.07 1.07 0 00-.135.045l-3.541 1.475-.343-2.126.51-1.217zm6.881 2.095c-.085.347.01.73.284.997l2.974 2.897-2.711 1.995-2.302-4.73 1.755-1.159zm5.735-4.654h-1.698a6.796 6.796 0 01-6.789-6.788v-5.672c2.236-.162 7.524-.916 11.088-4.45.669 1.456 1.944 3.39 4.188 4.226v5.896a6.796 6.796 0 01-6.788 6.788zM8.88 22.69a1.916 1.916 0 01-1.277-1.803c0-.832.534-1.54 1.277-1.803v3.606zm1.07-6.558h-.03a1.04 1.04 0 00-1.013.802 3.89 3.89 0 00-.255.049v-2.629c0-5.019 4.083-9.102 9.102-9.102h.845a9.095 9.095 0 018.817 6.83c.016.063.038.123.064.18A11.797 11.797 0 0023.88 15c-1.201-1.252-1.62-2.998-1.623-3.015a1.042 1.042 0 00-1.86-.38c-3.242 4.48-10.344 4.525-10.448 4.525zm1.014 7.371V18.17c2.05-.156 6.707-.852 9.91-3.947.374.784.937 1.699 1.752 2.467a11.66 11.66 0 00-1.717 6.103v4.105a4.14 4.14 0 00-1.068 2.778c0 .052.002.102.004.153-.29.04-.584.063-.88.063h-1.612a6.396 6.396 0 01-6.389-6.39zm2.5 11.04c.039.184.127.36.268.506l2.904 3.015-2.457 1.807-2.136-4.39 1.421-.938zm.845 15.78H8.165V44.74a1.042 1.042 0 10-2.084 0v5.581H2.084V45.03c0-5.473 4.318-7.036 4.497-7.098a.837.837 0 00.07-.026l3.537-1.473 2.663 5.475a1.043 1.043 0 001.555.384l.65-.478.436 1.164-1.184 7.345zM29.095 60.75H22.31v-5.937a1.042 1.042 0 10-2.084 0v5.937h-4.323v-5.634c0-5.808 4.586-7.465 4.777-7.53l.069-.026 3.845-1.603 2.844 5.846a1.042 1.042 0 001.555.384l.785-.579.57 1.362-1.254 7.78zm2.111 0l1.108-6.866h1.582l1.108 6.866h-3.798zm6.113-10.984l-.82-.604-.008-.005-1.865-1.373 3.104-3.222c.161-.168.254-.375.282-.589l1.609 1.062-2.302 4.731zm7.511-4.64l-3.496-1.458-3.309-2.183-.003-.002v-1.167a8.924 8.924 0 002.62-2.06l1.776 3.652a1.043 1.043 0 001.555.383l.691-.508.51 1.216-.344 2.127zm-1.085-5.255l-1.772-3.642c.2-.422.367-.863.5-1.319l.659-.434a1.04 1.04 0 00.306.87l2.778 2.707-2.471 1.818zm5.367 7.725a9.971 9.971 0 00-2.307-1.626l.332-2.057h1.411l.6 3.717-.036-.034zm-.398-5.767h-1.771l-.552-1.318 1.393-1.024 1.417 1.043-.487 1.299zm.652-3.765l2.904-3.015c.14-.145.229-.321.268-.506l1.42.938-2.136 4.39-2.456-1.807zM59.92 50.32v-5.58a1.042 1.042 0 10-2.084 0v5.58h-6.143l-1.185-7.344.438-1.164.649.477a1.041 1.041 0 001.554-.383l2.664-5.475 3.538 1.473c.022.01.045.018.068.026.045.015 4.498 1.575 4.498 7.098v5.292H59.92z" fill="#F8BE4D"/></g><defs><clipPath id="iclip0_8_0"><path fill="#fff" d="M0 0h66v66H0z"/></clipPath></defs></svg></svg>