<svg xmlns="http://www.w3.org/2000/svg" version="1.1" width="53px" height="45px" style="shape-rendering:geometricPrecision; text-rendering:geometricPrecision; image-rendering:optimizeQuality; fill-rule:evenodd; clip-rule:evenodd" xmlns:xlink="http://www.w3.org/1999/xlink">
<g><path style="opacity:1" fill="#fcfcfd" d="M -0.5,-0.5 C 4.16667,-0.5 8.83333,-0.5 13.5,-0.5C 13.5,0.166667 13.1667,0.5 12.5,0.5C 11.0937,0.973056 10.427,1.97306 10.5,3.5C 9.5399,10.0779 9.20656,16.7446 9.5,23.5C 9.5,23.8333 9.5,24.1667 9.5,24.5C 7.5,25.8333 5.83333,27.5 4.5,29.5C 2.83333,30.8333 1.16667,32.1667 -0.5,33.5C -0.5,22.1667 -0.5,10.8333 -0.5,-0.5 Z"/></g>
<g><path style="opacity:1" fill="#ed597d" d="M 13.5,-0.5 C 25.1667,-0.5 36.8333,-0.5 48.5,-0.5C 49.1667,0.5 49.8333,1.5 50.5,2.5C 50.6633,4.85684 50.4966,7.19018 50,9.5C 47.2972,12.3714 44.4639,15.0381 41.5,17.5C 41.81,14.2869 41.4767,11.2869 40.5,8.5C 40.573,6.97306 39.9063,5.97306 38.5,5.5C 36.7117,5.02949 34.8784,4.69615 33,4.5C 30.9919,4.30684 29.4919,4.9735 28.5,6.5C 25.9108,7.41938 23.9108,9.08605 22.5,11.5C 19.1667,14.1667 16.1667,17.1667 13.5,20.5C 12.5637,21.9744 11.2303,22.9744 9.5,23.5C 9.20656,16.7446 9.5399,10.0779 10.5,3.5C 11.9063,3.02694 12.573,2.02694 12.5,0.5C 13.1667,0.5 13.5,0.166667 13.5,-0.5 Z"/></g>
<g><path style="opacity:1" fill="#f6a7ba" d="M 12.5,0.5 C 12.573,2.02694 11.9063,3.02694 10.5,3.5C 10.427,1.97306 11.0937,0.973056 12.5,0.5 Z"/></g>
<g><path style="opacity:1" fill="#555db6" d="M 38.5,5.5 C 38.427,7.02694 39.0937,8.02694 40.5,8.5C 41.4767,11.2869 41.81,14.2869 41.5,17.5C 41.5,17.8333 41.5,18.1667 41.5,18.5C 39.1097,19.8908 37.4431,21.8908 36.5,24.5C 31.226,28.1047 26.5593,32.438 22.5,37.5C 12.4192,39.2503 8.08584,34.917 9.5,24.5C 9.5,24.1667 9.5,23.8333 9.5,23.5C 11.2303,22.9744 12.5637,21.9744 13.5,20.5C 17.5278,18.4722 20.5278,15.4722 22.5,11.5C 25.0892,10.5806 27.0892,8.91395 28.5,6.5C 29.4919,4.9735 30.9919,4.30684 33,4.5C 34.8784,4.69615 36.7117,5.02949 38.5,5.5 Z"/></g>
<g><path style="opacity:1" fill="#9d5999" d="M 38.5,5.5 C 39.9063,5.97306 40.573,6.97306 40.5,8.5C 39.0937,8.02694 38.427,7.02694 38.5,5.5 Z"/></g>
<g><path style="opacity:1" fill="#f7bcca" d="M 50.5,2.5 C 51.6341,4.96638 51.8007,7.63305 51,10.5C 48.2972,13.3714 45.4639,16.0381 42.5,18.5C 42.1667,18.5 41.8333,18.5 41.5,18.5C 41.5,18.1667 41.5,17.8333 41.5,17.5C 44.4639,15.0381 47.2972,12.3714 50,9.5C 50.4966,7.19018 50.6633,4.85684 50.5,2.5 Z"/></g>
<g><path style="opacity:1" fill="#fcfcfe" d="M 48.5,-0.5 C 49.8333,-0.5 51.1667,-0.5 52.5,-0.5C 52.5,14.5 52.5,29.5 52.5,44.5C 47.1667,44.5 41.8333,44.5 36.5,44.5C 37.5,42.8333 38.8333,41.5 40.5,40.5C 42.4633,33.5762 43.1299,26.2428 42.5,18.5C 45.4639,16.0381 48.2972,13.3714 51,10.5C 51.8007,7.63305 51.6341,4.96638 50.5,2.5C 49.8333,1.5 49.1667,0.5 48.5,-0.5 Z"/></g>
<g><path style="opacity:1" fill="#93599e" d="M 28.5,6.5 C 27.0892,8.91395 25.0892,10.5806 22.5,11.5C 23.9108,9.08605 25.9108,7.41938 28.5,6.5 Z"/></g>
<g><path style="opacity:1" fill="#8d5aa0" d="M 22.5,11.5 C 20.5278,15.4722 17.5278,18.4722 13.5,20.5C 16.1667,17.1667 19.1667,14.1667 22.5,11.5 Z"/></g>
<g><path style="opacity:1" fill="#60bdfd" d="M 41.5,18.5 C 41.7637,25.8896 41.4304,33.2229 40.5,40.5C 38.8333,41.5 37.5,42.8333 36.5,44.5C 25.5,44.5 14.5,44.5 3.5,44.5C 1.46095,43.089 0.460951,41.089 0.5,38.5C 0.343323,37.1266 0.50999,35.7932 1,34.5C 2.80216,33.2107 3.96882,31.5441 4.5,29.5C 5.83333,27.5 7.5,25.8333 9.5,24.5C 8.08584,34.917 12.4192,39.2503 22.5,37.5C 27.774,33.8953 32.4407,29.562 36.5,24.5C 37.4431,21.8908 39.1097,19.8908 41.5,18.5 Z"/></g>
<g><path style="opacity:1" fill="#d7eefe" d="M 41.5,18.5 C 41.8333,18.5 42.1667,18.5 42.5,18.5C 43.1299,26.2428 42.4633,33.5762 40.5,40.5C 41.4304,33.2229 41.7637,25.8896 41.5,18.5 Z"/></g>
<g><path style="opacity:1" fill="#599be4" d="M 36.5,24.5 C 32.4407,29.562 27.774,33.8953 22.5,37.5C 26.5593,32.438 31.226,28.1047 36.5,24.5 Z"/></g>
<g><path style="opacity:1" fill="#a8dbfe" d="M 4.5,29.5 C 3.96882,31.5441 2.80216,33.2107 1,34.5C 0.50999,35.7932 0.343323,37.1266 0.5,38.5C 0.166667,38.5 -0.166667,38.5 -0.5,38.5C -0.5,36.8333 -0.5,35.1667 -0.5,33.5C 1.16667,32.1667 2.83333,30.8333 4.5,29.5 Z"/></g>
<g><path style="opacity:1" fill="#f4fafe" d="M -0.5,38.5 C -0.166667,38.5 0.166667,38.5 0.5,38.5C 0.460951,41.089 1.46095,43.089 3.5,44.5C 2.16667,44.5 0.833333,44.5 -0.5,44.5C -0.5,42.5 -0.5,40.5 -0.5,38.5 Z"/></g>
</svg>
